# xmcd CD database file
#
# Track frame offsets:
#	150
#	12777
#	25917
#	37960
#	51017
#	63930
#	76927
#	88472
#	100420
#	112045
#
# Disc length: 1642 seconds
#
# Revision: 3
# Processed by: cddbd v1.5.1PL0 Copyright (c) Steve Scherf et al.
# Submitted via: CDex 1.51
#
DISCID=7806680a
DTITLE=Patsy Cline and Loretta Lynn - Just A Closer Walk With Thee
DYEAR=1900
DGENRE=Country
TTITLE0=Patsy Cline - Just A Closer Walk With Thee
TTITLE1=Loretta Lynn - How Great Thou Art
TTITLE2=Loretta Lynn - I'd Rather Have Jesus
TTITLE3=Loretta Lynn - (There'll Be) Peace In The Valley
TTITLE4=Patsy Cline - Life's Railway To Heaven
TTITLE5=Patsy Cline - If I Could See The World Through The Eyes Of A Child
TTITLE6=Loretta Lynn - When I Hear My Children Pray
TTITLE7=Loretta Lynn - In The Garden
TTITLE8=Loretta Lynn - May God Bless America Again
TTITLE9=Loretta Lynn - Living In God's Coutnry
EXTD=
EXTT0=
EXTT1=
EXTT2=
EXTT3=
EXTT4=
EXTT5=
EXTT6=
EXTT7=
EXTT8=
EXTT9=
PLAYORDER=
